<svg xmlns="http://www.w3.org/2000/svg" viewBox="0 0 256 256" preserveAspectRatio="xMidYMid meet">
  <!-- Black rounded background -->
  <rect width="256" height="256" rx="48" ry="48" fill="#1a1a2e"/>

  <!-- White icon scaled and centered -->
  <g transform="translate(20, 20) scale(0.0106)">
    <g transform="translate(0.000000,2048.000000) scale(0.100000,-0.100000)" fill="#ffffff" stroke="none">
      <path d="M10030 15141 c-124 -43 -252 -88 -285 -99 -32 -12 -66 -22 -74 -22 -7 0 -32 -9 -55 -20 -23 -10 -113 -45 -201 -76 -189 -67 -565 -197 -650 -226 -33 -11 -69 -24 -80 -28 -11 -5 -85 -32 -165 -59 -80 -27 -190 -66 -245 -86 -55 -20 -120 -42 -145 -50 -60 -18 -258 -89 -292 -105 -15 -7 -32 -26 -37 -42 -7 -19 -10 -384 -11 -1041 0 -556 -4 -1015 -8 -1019 -4 -4 -43 -21 -87 -38 -100 -39 -108 -42 -172 -70 -28 -13 -60 -20 -70 -17 -10 3 -56 19 -102 36 -99 37 -157 40 -195 10 l-26 -20 0 -730 c0 -713 0 -729 20 -749 18 -18 77 -48 110 -55 8 -2 44 -15 80 -30 36 -15 92 -38 125 -52 33 -14 76 -32 95 -41 70 -31 154 -62 171 -62 9 0 19 -7 23 -15 3 -8 12 -15 19 -15 8 0 20 -6 26 -13 18 -23 -33 -60 -194 -140 -1113 -553 -1103 -549 -1143 -536 -20 6 -60 22 -87 35 -63 30 -77 30 -145 -2 -30 -14 -83 -36 -117 -50 -87 -35 -151 -72 -163 -95 -7 -12 -10 -290 -8 -803 3 -772 3 -785 23 -801 11 -8 67 -38 125 -66 475 -231 2443 -1207 2517 -1248 10 -6 270 -134 578 -286 308 -152 586 -289 617 -304 64 -33 100 -31 143 7 14 13 57 43 95 67 38 24 87 61 110 81 l40 36 0 97 1 96 52 39 c195 144 726 505 742 506 11 0 29 -6 40 -14 11 -7 70 -34 130 -60 61 -26 135 -59 165 -73 30 -14 156 -69 280 -123 124 -54 284 -124 355 -155 72 -32 149 -64 172 -71 40 -12 44 -11 80 13 109 74 212 147 333 237 75 56 158 116 185 135 28 19 118 85 200 146 83 62 185 135 227 164 43 28 93 64 110 79 30 25 63 50 214 157 23 17 140 102 260 189 121 88 248 180 283 205 153 110 440 323 479 356 l42 36 0 2936 0 2936 -32 29 c-17 15 -38 28 -46 28 -9 0 -189 43 -401 95 -212 53 -395 98 -406 101 -11 2 -69 17 -130 33 -60 16 -164 41 -230 56 -66 15 -163 39 -215 52 -52 13 -113 28 -135 33 -22 5 -85 21 -140 35 -55 15 -127 33 -160 40 -174 41 -364 87 -390 95 -16 6 -142 37 -280 71 -137 33 -304 74 -370 91 -66 16 -212 52 -325 79 -113 28 -385 95 -604 149 -220 55 -404 100 -410 99 -6 0 -112 -35 -236 -78z"/>
      <path d="M9350 13020 c-11 -11 -20 -26 -20 -34 0 -26 19 -66 31 -66 7 0 30 -8 53 -19 39 -18 81 -31 211 -67 33 -9 85 -26 115 -36 30 -11 123 -39 205 -63 259 -75 318 -92 384 -115 80 -27 118 -23 144 12 21 28 21 28 1 64 -19 37 -40 48 -134 74 -25 6 -52 15 -60 20 -9 4 -31 11 -50 15 -32 6 -110 29 -295 84 -38 12 -78 26 -87 31 -10 6 -25 10 -33 10 -8 0 -61 15 -117 34 -57 18 -119 37 -138 41 -19 4 -54 13 -78 21 -61 20 -108 18 -132 -6z"/>
      <path d="M8507 11042 c-104 -58 -134 -85 -139 -129 -13 -104 19 -124 417 -270 83 -30 208 -77 279 -105 72 -27 150 -52 176 -55 79 -9 254 60 308 122 33 38 29 81 -10 105 -37 22 -46 21 -133 -20 -123 -58 -142 -61 -226 -34 -41 13 -83 28 -94 33 -11 5 -114 44 -230 86 -115 41 -219 80 -230 85 -11 5 -31 10 -44 12 -44 5 -34 26 28 57 52 27 61 35 67 66 5 28 2 39 -17 60 -33 35 -71 31 -152 -13z"/>
      <path d="M7365 8341 c-70 -34 -199 -125 -212 -151 -14 -28 -18 -110 -4 -110 5 0 14 -13 21 -29 13 -31 40 -47 335 -184 88 -41 225 -106 305 -145 265 -128 301 -133 422 -66 35 19 81 43 103 53 76 35 98 90 60 148 -15 23 -22 25 -62 19 -24 -3 -63 -19 -86 -35 -78 -53 -128 -74 -166 -68 -20 3 -90 30 -156 62 -66 31 -147 70 -180 85 -237 112 -425 210 -425 221 0 3 21 16 47 29 57 29 113 82 113 109 0 22 -46 81 -63 81 -7 0 -30 -9 -52 -19z"/>
    </g>
  </g>
</svg>
